<svg width="22" height="22" viewBox="0 0 22 22" fill="none" xmlns="http://www.w3.org/2000/svg">
<g clip-path="url(#clip0_2_67)">
<path d="M16.994 15.6715L21 19.6765L19.6765 21L15.6715 16.994C14.1813 18.1887 12.3278 18.8384 10.4178 18.8357C5.77119 18.8357 2 15.0645 2 10.4178C2 5.77119 5.77119 2 10.4178 2C15.0645 2 18.8357 5.77119 18.8357 10.4178C18.8384 12.3278 18.1887 14.1813 16.994 15.6715ZM15.1178 14.9775C16.3048 13.7568 16.9677 12.1205 16.965 10.4178C16.965 6.80004 14.0347 3.87063 10.4178 3.87063C6.80004 3.87063 3.87063 6.80004 3.87063 10.4178C3.87063 14.0347 6.80004 16.965 10.4178 16.965C12.1205 16.9677 13.7568 16.3048 14.9775 15.1178L15.1178 14.9775Z" fill="#828282"/>
</g>
<defs>
<clipPath id="clip0_2_67">
<rect width="22" height="22" fill="white"/>
</clipPath>
</defs>
</svg>
